<svg width="124" height="126" viewBox="0 0 124 126" fill="none" xmlns="http://www.w3.org/2000/svg">
<path d="M43.4199 61.55C39.1814 61.55 35.7414 65.0482 35.7414 69.3585C35.7414 73.6689 39.1814 77.1671 43.4199 77.1671C47.6584 77.1671 51.0983 73.6689 51.0983 69.3585C51.0983 65.0482 47.6584 61.55 43.4199 61.55ZM80.2764 61.55C76.0379 61.55 72.5979 65.0482 72.5979 69.3585C72.5979 73.6689 76.0379 77.1671 80.2764 77.1671C84.5149 77.1671 87.9548 73.6689 87.9548 69.3585C87.9548 65.0482 84.5149 61.55 80.2764 61.55ZM61.8481 0.643066C27.9402 0.643066 0.420654 28.629 0.420654 63.1117C0.420654 97.5944 27.9402 125.58 61.8481 125.58C95.7561 125.58 123.276 97.5944 123.276 63.1117C123.276 28.629 95.7561 0.643066 61.8481 0.643066ZM61.8481 113.087C34.7586 113.087 12.7061 90.6603 12.7061 63.1117C12.7061 61.3001 12.829 59.4885 13.0133 57.7394C27.5102 51.1802 38.9971 39.1237 45.017 24.1937C56.1354 40.1857 74.4408 50.618 95.1418 50.618C99.9332 50.618 104.54 50.0557 108.963 48.9938C110.253 53.429 110.99 58.1767 110.99 63.1117C110.99 90.6603 88.9376 113.087 61.8481 113.087Z" fill="#053742"/>
</svg>
