<svg width="210" height="205" viewBox="0 0 210 205" fill="none" xmlns="http://www.w3.org/2000/svg">
<path d="M105.268 0.70929C47.4869 0.70929 0.632324 47.546 0.632324 105.325C0.632324 151.546 30.6137 190.761 72.1887 204.594C77.418 205.562 79.3379 202.324 79.3379 199.561C79.3379 197.066 79.2409 188.825 79.1958 180.084C50.086 186.412 43.9435 167.741 43.9435 167.741C39.1837 155.649 32.3256 152.433 32.3256 152.433C22.832 145.94 33.0412 146.074 33.0412 146.074C43.5485 146.812 49.081 156.854 49.081 156.854C58.4135 172.848 73.5593 168.224 79.5302 165.551C80.4694 158.789 83.1811 154.174 86.1735 151.562C62.9325 148.917 38.501 139.946 38.501 99.8606C38.501 88.439 42.5885 79.1066 49.282 71.7804C48.1956 69.1454 44.6141 58.5051 50.2957 44.0951C50.2957 44.0951 59.0823 41.2835 79.078 54.8186C87.4245 52.5007 96.3758 51.3382 105.268 51.2984C114.16 51.3382 123.119 52.5007 131.481 54.8186C151.452 41.2835 160.227 44.0951 160.227 44.0951C165.922 58.5051 162.339 69.1454 161.252 71.7804C167.962 79.1066 172.021 88.439 172.021 99.8606C172.021 140.042 147.543 148.889 124.243 151.479C127.996 154.725 131.34 161.092 131.34 170.852C131.34 184.85 131.219 196.115 131.219 199.561C131.219 202.345 133.103 205.607 138.406 204.58C179.959 190.731 209.902 151.531 209.902 105.325C209.902 47.546 163.054 0.70929 105.268 0.70929ZM39.8218 149.736C39.5914 150.256 38.7735 150.412 38.0285 150.055C37.2695 149.713 36.8433 149.005 37.0893 148.483C37.3146 147.948 38.1342 147.799 38.8914 148.158C39.652 148.499 40.0852 149.214 39.8218 149.736ZM44.9687 154.328C44.4697 154.79 43.4942 154.575 42.8323 153.844C42.1479 153.115 42.0197 152.14 42.5256 151.67C43.0402 151.208 43.9863 151.424 44.6725 152.153C45.3569 152.891 45.4903 153.86 44.9687 154.328ZM48.4997 160.202C47.8586 160.648 46.8103 160.23 46.1623 159.3C45.5212 158.369 45.5212 157.254 46.1761 156.807C46.8259 156.36 47.8586 156.762 48.5153 157.685C49.1547 158.631 49.1547 159.747 48.4997 160.202ZM54.4714 167.006C53.8978 167.639 52.6763 167.469 51.7822 166.606C50.8673 165.762 50.6126 164.565 51.1879 163.933C51.7683 163.299 52.9968 163.477 53.8978 164.333C54.8058 165.175 55.083 166.381 54.4714 167.006ZM62.1891 169.303C61.9362 170.123 60.7596 170.495 59.5745 170.147C58.391 169.788 57.6165 168.828 57.8556 168C58.1017 167.176 59.2834 166.788 60.4772 167.16C61.6589 167.517 62.4352 168.47 62.1891 169.303ZM70.9723 170.277C71.0017 171.14 69.9968 171.856 68.7527 171.871C67.5016 171.899 66.4897 171.201 66.4759 170.352C66.4759 169.481 67.4583 168.772 68.7094 168.751C69.9535 168.727 70.9723 169.42 70.9723 170.277ZM79.6008 169.947C79.7498 170.789 78.8851 171.653 77.6497 171.884C76.4351 172.105 75.3105 171.586 75.1563 170.751C75.0056 169.888 75.8858 169.023 77.0987 168.8C78.3359 168.585 79.4431 169.091 79.6008 169.947Z" fill="#053742"/>
</svg>
