<svg width="50" height="50" viewBox="0 0 50 50" fill="none" xmlns="http://www.w3.org/2000/svg">
<path d="M25.0002 0C11.1948 0 0 11.2909 0 25.2195C0 36.3621 7.16332 45.8155 17.0967 49.1502C18.3461 49.3837 18.8048 48.6031 18.8048 47.937C18.8048 47.3356 18.7816 45.349 18.7709 43.2417C11.8158 44.7672 10.3482 40.2661 10.3482 40.2661C9.21093 37.3511 7.57235 36.576 7.57235 36.576C5.30408 35.0107 7.74332 35.0429 7.74332 35.0429C10.2538 35.2208 11.5757 37.6417 11.5757 37.6417C13.8054 41.4972 17.4241 40.3826 18.8508 39.7382C19.0751 38.1082 19.723 36.9957 20.438 36.3659C14.8851 35.7282 9.04782 33.5657 9.04782 23.9023C9.04782 21.1489 10.0244 18.8992 11.6237 17.133C11.3641 16.4978 10.5084 13.9328 11.8659 10.459C11.8659 10.459 13.9652 9.78118 18.7427 13.0441C20.7369 12.4853 22.8756 12.2051 25.0002 12.1955C27.1248 12.2051 29.2652 12.4853 31.2631 13.0441C36.0348 9.78118 38.1312 10.459 38.1312 10.459C39.492 13.9328 38.6359 16.4978 38.3763 17.133C39.9793 18.8992 40.9493 21.1489 40.9493 23.9023C40.9493 33.5887 35.1008 35.7215 29.5338 36.3458C30.4306 37.1285 31.2296 38.6632 31.2296 41.0161C31.2296 44.3905 31.2006 47.1064 31.2006 47.937C31.2006 48.6081 31.6506 49.3945 32.9178 49.1469C42.8458 45.8084 50 36.3584 50 25.2195C50 11.2909 38.8069 0 25.0002 0ZM9.36339 35.9257C9.30833 36.051 9.11292 36.0886 8.93491 36.0025C8.75358 35.9203 8.65174 35.7495 8.71052 35.6238C8.76434 35.4947 8.96016 35.4588 9.14108 35.5452C9.32282 35.6275 9.42632 35.8 9.36339 35.9257ZM10.5931 37.0326C10.4739 37.1441 10.2408 37.0923 10.0827 36.9161C9.91914 36.7403 9.88851 36.5051 10.0094 36.392C10.1323 36.2805 10.3584 36.3327 10.5223 36.5085C10.6859 36.6864 10.7177 36.9198 10.5931 37.0326ZM11.4368 38.4488C11.2836 38.5562 11.0331 38.4555 10.8783 38.2313C10.7251 38.007 10.7251 37.738 10.8816 37.6303C11.0368 37.5226 11.2836 37.6194 11.4405 37.842C11.5933 38.0701 11.5933 38.339 11.4368 38.4488ZM12.8635 40.089C12.7265 40.2415 12.4346 40.2006 12.221 39.9926C12.0024 39.7892 11.9416 39.5006 12.079 39.3482C12.2177 39.1953 12.5112 39.2383 12.7265 39.4447C12.9434 39.6476 13.0097 39.9383 12.8635 40.089ZM14.7075 40.6428C14.6471 40.8403 14.366 40.9301 14.0828 40.8461C13.8001 40.7597 13.615 40.5283 13.6721 40.3287C13.7309 40.1299 14.0133 40.0364 14.2985 40.1262C14.5808 40.2122 14.7663 40.4419 14.7075 40.6428ZM16.806 40.8776C16.8131 41.0856 16.573 41.2581 16.2757 41.2618C15.9768 41.2685 15.735 41.1002 15.7317 40.8956C15.7317 40.6855 15.9665 40.5147 16.2654 40.5097C16.5626 40.5039 16.806 40.6709 16.806 40.8776ZM18.8676 40.7979C18.9032 41.0009 18.6966 41.2093 18.4015 41.2648C18.1112 41.3183 17.8426 41.193 17.8057 40.9917C17.7697 40.7837 17.98 40.5753 18.2698 40.5214C18.5654 40.4697 18.8299 40.5916 18.8676 40.7979Z" fill="#E8EFF1"/>
</svg>
