<svg width="112" height="110" viewBox="0 0 112 110" fill="none" xmlns="http://www.w3.org/2000/svg">
<path d="M56.2987 10.4794C71.1717 10.4794 72.9332 10.5349 78.8067 10.7979C84.2375 11.0411 87.1868 11.9316 89.1498 12.6799C91.7496 13.6715 93.6053 14.8562 95.5544 16.7688C97.5034 18.6814 98.7106 20.5025 99.7209 23.0536C100.484 24.9799 101.391 27.8741 101.639 33.2032C101.907 38.9671 101.964 40.6957 101.964 55.2907C101.964 69.8856 101.907 71.6142 101.639 77.3779C101.391 82.7072 100.484 85.6014 99.7209 87.5277C98.7106 90.0789 97.5034 91.8999 95.5544 93.8126C93.6053 95.7252 91.7496 96.9099 89.1498 97.9012C87.1868 98.6498 84.2375 99.5402 78.8067 99.7834C72.9341 100.046 71.1725 100.102 56.2987 100.102C41.4249 100.102 39.6634 100.046 33.7908 99.7834C28.36 99.5402 25.4106 98.6498 23.4479 97.9012C20.8479 96.9099 18.9921 95.7252 17.0431 93.8126C15.094 91.8999 13.8868 90.0789 12.8766 87.5277C12.1138 85.6014 11.2063 82.7072 10.9585 77.3781C10.6905 71.6142 10.6339 69.8856 10.6339 55.2907C10.6339 40.6957 10.6905 38.9671 10.9585 33.2034C11.2063 27.8741 12.1138 24.9799 12.8766 23.0536C13.8868 20.5025 15.094 18.6814 17.0431 16.7688C18.9921 14.8562 20.8479 13.6715 23.4479 12.6799C25.4106 11.9316 28.36 11.0411 33.7906 10.7979C39.6642 10.5349 41.4258 10.4794 56.2987 10.4794ZM56.2987 0.630524C41.1711 0.630524 39.2744 0.693446 33.3333 0.959455C27.4043 1.22503 23.3555 2.1489 19.8122 3.50021C16.1494 4.89709 13.0431 6.7661 9.94647 9.80481C6.84988 12.8435 4.94527 15.8918 3.52179 19.4862C2.14474 22.9632 1.20327 26.9364 0.932632 32.7545C0.661556 38.5844 0.597656 40.4458 0.597656 55.2907C0.597656 70.1356 0.661556 71.997 0.932632 77.8268C1.20327 83.645 2.14474 87.6182 3.52179 91.0952C4.94527 94.6893 6.84988 97.7378 9.94647 100.777C13.0431 103.815 16.1494 105.684 19.8122 107.081C23.3555 108.432 27.4043 109.356 33.3333 109.622C39.2744 109.888 41.1711 109.951 56.2987 109.951C71.4264 109.951 73.3232 109.888 79.2641 109.622C85.1931 109.356 89.242 108.432 92.7852 107.081C96.4481 105.684 99.5544 103.815 102.651 100.777C105.748 97.7378 107.652 94.6896 109.076 91.0952C110.453 87.6182 111.394 83.645 111.665 77.8268C111.936 71.997 112 70.1356 112 55.2907C112 40.4458 111.936 38.5844 111.665 32.7545C111.394 26.9364 110.453 22.9632 109.076 19.4862C107.652 15.8918 105.748 12.8435 102.651 9.80481C99.5544 6.7661 96.4481 4.89709 92.7852 3.50021C89.242 2.1489 85.1931 1.22503 79.2641 0.959455C73.3232 0.693446 71.4264 0.630524 56.2987 0.630524ZM56.2987 27.2219C40.5016 27.2219 27.6953 39.7888 27.6953 55.2907C27.6953 70.7926 40.5016 83.3594 56.2987 83.3594C72.0959 83.3594 84.9021 70.7926 84.9021 55.2907C84.9021 39.7888 72.0959 27.2219 56.2987 27.2219ZM56.2987 73.5108C46.0445 73.5108 37.7316 65.3532 37.7316 55.2907C37.7316 45.2281 46.0445 37.0706 56.2987 37.0706C66.553 37.0706 74.8659 45.2281 74.8659 55.2907C74.8659 65.3532 66.553 73.5108 56.2987 73.5108ZM92.7162 26.113C92.7162 29.7355 89.7238 32.6723 86.0322 32.6723C82.3406 32.6723 79.3479 29.7355 79.3479 26.113C79.3479 22.4904 82.3406 19.5539 86.0322 19.5539C89.7238 19.5539 92.7162 22.4904 92.7162 26.113Z" fill="#053742"/>
</svg>
