<svg width="112" height="110" viewBox="0 0 112 110" fill="none" xmlns="http://www.w3.org/2000/svg">
<path d="M56.2987 10.1406C71.1717 10.1406 72.9332 10.1961 78.8067 10.4591C84.2375 10.7023 87.1868 11.5928 89.1498 12.3411C91.7496 13.3327 93.6053 14.5174 95.5544 16.43C97.5034 18.3426 98.7106 20.1637 99.7209 22.7149C100.484 24.6411 101.391 27.5354 101.639 32.8644C101.907 38.6283 101.964 40.357 101.964 54.9519C101.964 69.5468 101.907 71.2755 101.639 77.0391C101.391 82.3684 100.484 85.2626 99.7209 87.1889C98.7106 89.7401 97.5034 91.5612 95.5544 93.4738C93.6053 95.3864 91.7496 96.5711 89.1498 97.5624C87.1868 98.311 84.2375 99.2014 78.8067 99.4447C72.9341 99.7076 71.1725 99.7632 56.2987 99.7632C41.4249 99.7632 39.6634 99.7076 33.7908 99.4447C28.36 99.2014 25.4106 98.311 23.4479 97.5624C20.8479 96.5711 18.9921 95.3864 17.0431 93.4738C15.094 91.5612 13.8868 89.7401 12.8766 87.1889C12.1138 85.2626 11.2063 82.3684 10.9585 77.0394C10.6905 71.2755 10.6339 69.5468 10.6339 54.9519C10.6339 40.357 10.6905 38.6283 10.9585 32.8647C11.2063 27.5354 12.1138 24.6411 12.8766 22.7149C13.8868 20.1637 15.094 18.3426 17.0431 16.43C18.9921 14.5174 20.8479 13.3327 23.4479 12.3411C25.4106 11.5928 28.36 10.7023 33.7906 10.4591C39.6642 10.1961 41.4258 10.1406 56.2987 10.1406ZM56.2987 0.291748C41.1711 0.291748 39.2744 0.35467 33.3333 0.62068C27.4043 0.886255 23.3555 1.81013 19.8122 3.16144C16.1494 4.55831 13.0431 6.42732 9.94647 9.46603C6.84988 12.5047 4.94527 15.553 3.52179 19.1474C2.14474 22.6244 1.20327 26.5976 0.932632 32.4157C0.661556 38.2456 0.597656 40.107 0.597656 54.9519C0.597656 69.7968 0.661556 71.6582 0.932632 77.488C1.20327 83.3062 2.14474 87.2794 3.52179 90.7564C4.94527 94.3506 6.84988 97.399 9.94647 100.438C13.0431 103.476 16.1494 105.345 19.8122 106.742C23.3555 108.094 27.4043 109.018 33.3333 109.283C39.2744 109.549 41.1711 109.612 56.2987 109.612C71.4264 109.612 73.3232 109.549 79.2641 109.283C85.1931 109.018 89.242 108.094 92.7852 106.742C96.4481 105.345 99.5544 103.476 102.651 100.438C105.748 97.399 107.652 94.3508 109.076 90.7564C110.453 87.2794 111.394 83.3062 111.665 77.488C111.936 71.6582 112 69.7968 112 54.9519C112 40.107 111.936 38.2456 111.665 32.4157C111.394 26.5976 110.453 22.6244 109.076 19.1474C107.652 15.553 105.748 12.5047 102.651 9.46603C99.5544 6.42732 96.4481 4.55831 92.7852 3.16144C89.242 1.81013 85.1931 0.886255 79.2641 0.62068C73.3232 0.35467 71.4264 0.291748 56.2987 0.291748ZM56.2987 26.8831C40.5016 26.8831 27.6953 39.45 27.6953 54.9519C27.6953 70.4538 40.5016 83.0207 56.2987 83.0207C72.0959 83.0207 84.9021 70.4538 84.9021 54.9519C84.9021 39.45 72.0959 26.8831 56.2987 26.8831ZM56.2987 73.172C46.0445 73.172 37.7316 65.0145 37.7316 54.9519C37.7316 44.8893 46.0445 36.7318 56.2987 36.7318C66.553 36.7318 74.8659 44.8893 74.8659 54.9519C74.8659 65.0145 66.553 73.172 56.2987 73.172ZM92.7162 25.7742C92.7162 29.3968 89.7238 32.3335 86.0322 32.3335C82.3406 32.3335 79.3479 29.3968 79.3479 25.7742C79.3479 22.1516 82.3406 19.2151 86.0322 19.2151C89.7238 19.2151 92.7162 22.1516 92.7162 25.7742Z" fill="#E8EFF1"/>
</svg>
