<svg width="110" height="107" viewBox="0 0 110 107" fill="none" xmlns="http://www.w3.org/2000/svg">
<path d="M98.3009 0.206543H11.6777C5.7224 0.206543 0.849854 4.98539 0.849854 10.8262V95.7835C0.849854 101.624 5.7224 106.403 11.6777 106.403H98.3009C104.256 106.403 109.129 101.624 109.129 95.7835V10.8262C109.129 4.98539 104.256 0.206543 98.3009 0.206543ZM33.3335 90.4737H17.0917V42.6852H33.3335V90.4737ZM25.2126 33.6585C19.7987 33.6585 15.4675 29.4106 15.4675 24.1008C15.4675 18.791 19.7987 14.5431 25.2126 14.5431C30.6266 14.5431 34.9577 18.791 34.9577 24.1008C34.9577 29.4106 30.6266 33.6585 25.2126 33.6585ZM92.8869 90.4737H76.6451V62.3316C76.6451 58.0839 72.8553 54.3668 68.5242 54.3668C64.193 54.3668 60.4033 58.0839 60.4033 62.3316V90.4737H44.1614V42.6852H60.4033V49.057C63.1102 44.8091 69.0656 41.6232 73.9381 41.6232C84.2246 41.6232 92.8869 50.119 92.8869 60.2076V90.4737Z" fill="#053742"/>
</svg>
