<svg width="110" height="108" viewBox="0 0 110 108" fill="none" xmlns="http://www.w3.org/2000/svg">
<path d="M98.3009 0.867676H11.6777C5.7224 0.867676 0.849854 5.64652 0.849854 11.4873V96.4446C0.849854 102.285 5.7224 107.064 11.6777 107.064H98.3009C104.256 107.064 109.129 102.285 109.129 96.4446V11.4873C109.129 5.64652 104.256 0.867676 98.3009 0.867676ZM33.3335 91.1348H17.0917V43.3463H33.3335V91.1348ZM25.2126 34.3196C19.7987 34.3196 15.4675 30.0718 15.4675 24.7619C15.4675 19.4521 19.7987 15.2042 25.2126 15.2042C30.6266 15.2042 34.9577 19.4521 34.9577 24.7619C34.9577 30.0718 30.6266 34.3196 25.2126 34.3196ZM92.8869 91.1348H76.6451V62.9927C76.6451 58.7451 72.8553 55.028 68.5242 55.028C64.193 55.028 60.4033 58.7451 60.4033 62.9927V91.1348H44.1614V43.3463H60.4033V49.7181C63.1102 45.4703 69.0656 42.2844 73.9381 42.2844C84.2246 42.2844 92.8869 50.7801 92.8869 60.8688V91.1348Z" fill="#E8EFF1"/>
</svg>
