<svg width="356" height="356" viewBox="0 0 356 356" fill="none" xmlns="http://www.w3.org/2000/svg">
<path d="M178 330.368C268.442 330.368 341.76 257.05 341.76 166.608C341.76 76.1657 268.442 2.8479 178 2.8479C87.5576 2.8479 14.2397 76.1657 14.2397 166.608C14.2397 257.05 87.5576 330.368 178 330.368Z" fill="white"/>
<path d="M178 331.792C269.229 331.792 343.184 257.837 343.184 166.608C343.184 75.3793 269.229 1.42395 178 1.42395C86.7713 1.42395 12.8159 75.3793 12.8159 166.608C12.8159 257.837 86.7713 331.792 178 331.792Z" stroke="black"/>
<path fill-rule="evenodd" clip-rule="evenodd" d="M189.089 74.883C141.322 99.4185 95.6145 137.473 76.886 168.303C64.9301 187.988 66.6019 192.753 83.5646 187.328C89.5824 185.402 98.6732 181.313 103.763 178.243C118.715 169.223 114.551 173.731 90.2346 192.884C77.7034 202.755 67.4449 211.638 67.4364 212.627C67.4307 213.612 63.4292 218.684 58.5449 223.896C43.4363 240.016 52.5983 240.167 79.0277 224.235C123.696 197.307 204.155 156.216 204.155 160.329C204.155 161.021 200.578 163.436 196.203 165.697C164.069 182.315 119.592 230.085 136.255 230.085C138.07 230.085 151.207 222.603 165.447 213.461C196.157 193.741 198.459 192.377 198.459 193.872C198.459 194.502 191.068 200.947 182.037 208.189C162.463 223.89 152.905 237.72 159.8 240.366C162.226 241.297 170.121 238.597 177.341 234.365C191.037 226.34 222.886 210.149 224.979 210.149C225.643 210.149 221.858 214.737 216.569 220.347C205.749 231.819 206.555 237.151 218.739 234.716C225.928 233.277 226.939 233.907 226.939 239.819C226.939 243.527 229.043 247.372 231.618 248.36C237.767 250.719 240.757 247.586 235.474 244.319C233.21 242.921 231.327 238.825 231.285 235.22C231.222 229.743 229.892 228.8 223.205 229.507C216.279 230.241 215.572 229.666 217.953 225.235C219.465 222.421 226.722 215.631 234.079 210.149C244.759 202.189 246.342 200.01 241.939 199.332C234.38 198.17 208.714 208.11 188.32 220.097L171.403 230.039L184.219 218.633C191.267 212.359 212.092 196.914 230.499 184.315C248.905 171.712 263.963 160.195 263.963 158.72C263.963 150.27 231.974 161.553 195.753 182.785C186.081 188.453 178.967 191.796 179.944 190.218C182.598 185.921 229.915 158.685 264.675 141.444C281.512 133.09 295.289 125.27 295.289 124.059C295.289 113.465 213.527 139.103 156.952 167.434C135.922 177.964 118.715 186.183 118.715 185.696C118.715 185.209 134.413 174.287 153.603 161.422C185.99 139.715 222.704 120.556 270.849 100.247C281.686 95.6762 291.083 90.3391 291.732 88.3854C293.524 83.0169 275.953 83.951 258.002 90.1796C243.206 95.3117 126.373 153.699 92.2396 173.017C83.163 178.154 75.1658 181.788 74.4681 181.091C73.7703 180.396 84.456 168.386 98.2119 154.402C122.312 129.904 156.163 103.491 179.947 90.6267C187.707 86.4288 189.1 86.1127 184.313 89.6356C167.065 102.326 162.708 107.419 166.8 110.11C175.321 115.712 205.732 100.643 221.001 83.2533C225.996 77.563 229.596 71.4284 229.003 69.617C226.662 62.4856 208.58 64.8723 189.089 74.883ZM208.495 75.1422C202.266 77.4234 195.858 80.616 194.255 82.2422C192.296 84.2244 193.97 84.2016 199.356 82.1682C209.102 78.4886 212.699 78.3433 212.699 81.6327C212.699 83.0026 209.176 84.851 204.867 85.7396C194.822 87.8129 167.484 105.277 171.901 106.801C179.132 109.293 215.849 86.369 221.479 75.8513C224.774 69.6911 223.567 69.6256 208.495 75.1422Z" fill="black" fill-opacity="0.137"/>
<path fill-rule="evenodd" clip-rule="evenodd" d="M197.84 71.6762C177.215 80.2287 129.656 111.79 109.145 130.536C89.5905 148.41 65.223 184.229 70.432 187.447C74.3908 189.894 88.4684 185.534 107.598 175.939C122.083 168.676 121.183 169.693 95.2381 189.931C72.2177 207.887 48.4768 233.984 54.0703 235.183C56.1863 235.636 72.6307 227.268 90.6101 216.585C124.302 196.57 194.408 160.987 207.002 157.509C210.918 156.427 205.954 160.46 195.975 166.469C165.37 184.896 127.785 223.016 134.048 229.279C135.702 230.936 140.031 228.459 184.218 200.574C219.192 178.502 227.887 175.628 199.617 195.484C178.175 210.545 158.586 230.466 158.586 237.213C158.586 239.557 159.273 241.477 160.11 241.477C160.947 241.477 175.133 234.269 191.634 225.457C208.133 216.645 224.694 209.437 228.439 209.437C232.181 209.437 237.541 206.842 240.347 203.67C245.362 198.002 245.305 197.937 236.906 199.89C225.816 202.468 189.023 219.761 178.132 227.513C173.467 230.837 169.169 233.072 168.583 232.486C166.561 230.466 199.931 204.083 231.922 182.406C249.546 170.465 263.962 159.648 263.962 158.366C263.962 150.127 218.406 168.733 182.786 191.52C163.337 203.96 159.893 204.484 174.569 192.767C189.572 180.792 231.105 156.515 263.891 140.558C297.775 124.065 301.506 120.522 282.474 122.906C257.019 126.093 198.085 148.082 150.185 172.259C124.419 185.266 104.554 194.755 106.041 193.348C113.645 186.154 191.637 135.312 206.837 127.639C216.492 122.766 238.74 112.938 256.278 105.801C291.478 91.4726 295.816 88.8012 288.465 85.9788C280.466 82.9115 247.267 93.3466 221.242 107.111C207.928 114.151 179.733 128.605 158.586 139.228C137.44 149.851 109.566 164.316 96.6422 171.376C83.7208 178.436 73.1462 183.044 73.1462 181.618C73.1462 174.748 130.946 121.382 157.162 104.049C209.058 69.7339 242.887 58.6466 212.826 85.8051C199.421 97.9177 179.975 108.341 173.325 106.98C167.013 105.69 191.042 87.8927 202.078 85.6827C206.418 84.814 210.608 83.0682 211.388 81.8037C214.205 77.2469 194.753 84.7941 181.094 93.5574C157.014 109.011 166.085 116.868 192.529 103.468C210.505 94.3577 227.704 78.1212 226.434 71.4597C225.007 63.9695 216.27 64.035 197.84 71.6762ZM218.952 219.542C207.728 231.121 207.626 232.933 218.195 232.933C224.583 232.933 226.756 234.385 227.451 239.119C227.952 242.519 229.997 245.626 231.993 246.025C233.99 246.421 234.312 246.093 232.705 245.299C231.099 244.501 229.786 240.753 229.786 236.968C229.786 231.124 228.411 230.085 220.684 230.085H211.582L221.242 220.117C226.557 214.634 230.262 210.149 229.479 210.149C228.695 210.149 223.959 214.375 218.952 219.542Z" fill="black" fill-opacity="0.509"/>
<path fill-rule="evenodd" clip-rule="evenodd" d="M205.08 70.2834C163.026 84.5206 96.9841 135.599 79.0075 167.79C72.9014 178.724 74.9206 177.22 95.5686 155.459C130.14 119.013 187.553 78.9043 215.193 71.8869C222.675 69.9872 226.081 68.0278 223.578 67.068C221.257 66.1766 212.932 67.6263 205.08 70.2834ZM206.638 92.6687C203.098 97.1857 203.197 97.2853 207.714 93.7453C212.459 90.0229 213.966 87.6847 211.622 87.6847C211.032 87.6847 208.788 89.9289 206.638 92.6687ZM253.994 93.1956C246.162 96.0009 203.229 117.244 158.586 140.407C113.944 163.57 75.8177 182.543 73.8583 182.569C71.9017 182.597 70.2983 183.685 70.2983 184.992C70.2983 189.754 80.8957 187.14 101.39 177.317C122.938 166.993 130.704 165.595 116.667 174.569C90.5875 191.244 49.8896 230.56 54.2242 234.895C55.0957 235.769 70.2841 227.778 87.9759 217.135C122.172 196.567 208.478 153.283 215.415 153.223C217.694 153.206 210.004 159.073 198.327 166.264C170.921 183.141 154.329 196.82 144.05 211.009C128.979 231.813 133.937 232.483 162.274 213.467C184.449 198.586 221.242 177.496 221.242 179.667C221.242 180.404 210.366 188.908 197.071 198.566C173.917 215.389 158.586 231.173 158.586 238.184C158.586 243.188 160.241 242.553 186.699 227.422C200.216 219.692 218.021 211.205 226.269 208.568C242.212 203.464 250.263 197.099 236.434 200.531C223.256 203.801 193.557 217.873 179.673 227.425C172.553 232.323 166.119 235.718 165.37 234.972C162.924 232.523 193.52 207.623 227.65 184.283C260.861 161.576 268.525 153.559 253.396 157.355C241.198 160.417 201.605 180.111 181.758 192.99C171.787 199.457 163.021 204.139 162.277 203.396C158.048 199.17 248.464 144.266 280.338 131.709C295.303 125.811 296.041 121.698 281.762 123.763C249.346 128.448 170.491 160.078 115.866 190.304C87.7623 205.857 98.8296 196.917 153.144 160.2C188.94 135.998 206.592 126.287 244.28 110.053C269.986 98.9799 291.553 89.4163 292.205 88.804C295.765 85.4462 266.124 88.8553 253.994 93.1956ZM218.178 220.829L211.274 228.661L219.106 221.757C226.426 215.304 228.246 212.997 226.01 212.997C225.5 212.997 221.977 216.52 218.178 220.829Z" fill="black" fill-opacity="0.528"/>
<path fill-rule="evenodd" clip-rule="evenodd" d="M189.214 77.637C147.2 99.1964 96.3347 139.755 83.288 162.097C79.4546 168.662 84.2421 165.005 98.952 150.136C130.166 118.583 182.222 82.1796 210.072 72.428C219.599 69.093 220.932 67.9909 215.546 67.8997C211.63 67.8314 199.78 72.2144 189.214 77.637ZM256.842 93.0447C249.01 95.8813 237.476 100.8 231.21 103.975C116.755 161.978 69.0793 187.365 74.6044 187.365C78.1844 187.365 104.164 175.967 125.122 165.204C126.298 164.601 127.255 165.173 127.253 166.48C127.25 167.785 121.668 172.379 114.847 176.688C99.6754 186.271 66.9177 215.984 58.5189 227.781L52.353 236.439L59.1882 232.862C62.9504 230.894 79.7508 221.173 96.5227 211.262C146.36 181.82 215.481 148.857 222.407 151.235C224.116 151.822 219.106 155.635 211.274 159.711C189.647 170.969 173.646 182.48 156.581 199.067C125.777 229.005 129.186 233.898 164.883 210.983C199.102 189.019 224.065 174.999 225.822 176.756C226.591 177.522 217.224 185.166 205.006 193.739C184.403 208.195 156.573 234.716 159.221 237.364C159.854 237.999 167.982 231.173 177.283 222.196C186.585 213.222 209.252 195.695 227.656 183.255C246.057 170.812 261.114 159.702 261.114 158.563C261.114 152.058 207.891 176.32 176.002 197.361C167.566 202.926 160.136 206.95 159.489 206.304C157.248 204.063 182.908 184.03 205.578 170.322C218.109 162.744 242.97 149.381 260.824 140.626C284.092 129.217 291.063 124.709 285.441 124.709C257.446 124.709 167.29 160.747 113.434 193.465C103.361 199.586 94.4465 203.92 93.6262 203.097C91.6953 201.166 88.1552 203.858 137.474 169.767C184.723 137.106 209.346 123.487 257.554 103.343C275.178 95.9782 289.593 89.442 289.593 88.8183C289.593 85.8535 269.57 88.4395 256.842 93.0447ZM220.909 206.953C202.876 214.646 169.978 232.312 169.978 234.3C169.978 234.821 183.615 228.316 200.281 219.849C216.947 211.382 232.967 204.453 235.881 204.453C238.795 204.453 241.178 203.171 241.178 201.605C241.178 198.016 242.935 197.552 220.909 206.953Z" fill="black" fill-opacity="0.961"/>
</svg>
