<svg width="114" height="154" viewBox="0 0 114 154" fill="none" xmlns="http://www.w3.org/2000/svg">
<path d="M56.8038 0.82019C53.0759 0.82019 49.2669 1.1424 45.458 1.94791C23.0905 6.21715 5.26131 24.1802 1.04714 46.4124C-2.84286 67.4364 4.93714 86.7688 19.0384 99.2543C22.5232 102.315 24.3871 106.584 24.3871 111.095V129.703C24.3871 138.563 31.6809 145.813 40.5955 145.813H42.8646C45.7011 150.646 50.8067 153.868 56.8038 153.868C62.8009 153.868 67.9876 150.646 70.743 145.813H73.0121C81.9267 145.813 89.2205 138.563 89.2205 129.703V111.095C89.2205 106.665 91.0034 102.315 94.4071 99.3348C106.158 89.0242 113.533 73.9611 113.533 57.2063C113.533 26.0329 88.1669 0.82019 56.8038 0.82019ZM73.0121 129.703H40.5955V121.648H73.0121V129.703ZM73.0121 113.592H40.5955V105.537H73.0121V113.592ZM60.8559 68.5641V89.427H52.7517V68.5641L37.9211 53.9037L43.6751 48.1846L56.8038 61.2339L69.9326 48.1846L75.6865 53.9037L60.8559 68.5641Z" fill="#053742"/>
</svg>
