<svg width="126" height="156" viewBox="0 0 126 156" fill="none" xmlns="http://www.w3.org/2000/svg">
<path d="M83.3266 5.39654C80.3594 2.44906 76.377 0.82019 72.2384 0.82019H16.2509C7.66151 0.82019 0.633789 7.80106 0.633789 16.3332V140.438C0.633789 148.97 7.58342 155.951 16.1729 155.951H109.954C118.543 155.951 125.571 148.97 125.571 140.438V53.7972C125.571 49.6863 123.931 45.7304 120.964 42.8605L83.3266 5.39654ZM86.5281 124.924H39.6767C35.382 124.924 31.8681 121.434 31.8681 117.168C31.8681 112.902 35.382 109.411 39.6767 109.411H86.5281C90.8229 109.411 94.3367 112.902 94.3367 117.168C94.3367 121.434 90.8229 124.924 86.5281 124.924ZM86.5281 93.8984H39.6767C35.382 93.8984 31.8681 90.408 31.8681 86.1419C31.8681 81.8758 35.382 78.3854 39.6767 78.3854H86.5281C90.8229 78.3854 94.3367 81.8758 94.3367 86.1419C94.3367 90.408 90.8229 93.8984 86.5281 93.8984ZM70.911 47.3593V12.455L113.858 55.1158H78.7196C74.4248 55.1158 70.911 51.6254 70.911 47.3593Z" fill="#053742"/>
</svg>
